<?xml version="1.0" encoding="UTF-8"?>
<svg width="78px" height="70px" viewBox="0 0 78 70" version="1.1" xmlns="http://www.w3.org/2000/svg" xmlns:xlink="http://www.w3.org/1999/xlink">
    <!-- Generator: Sketch 47.1 (45422) - http://www.bohemiancoding.com/sketch -->
    <title>Group 48</title>
    <desc>Created with Sketch.</desc>
    <defs></defs>
    <g id="Product-Landing-Pages" stroke="none" stroke-width="1" fill="none" fill-rule="evenodd">
        <g id="SmartJane" transform="translate(-661.000000, -8610.000000)" fill-rule="nonzero" fill="#272E31">
            <g id="Group-48" transform="translate(661.000000, 8610.000000)">
                <path d="M14.8834031,46.5 L3.09229999,59.028047 C2.1613153,60.0172183 0.5,59.3583785 0.5,58 L0.5,12 C0.5,5.64872538 5.64872538,0.5 12,0.5 L52,0.5 C58.3512746,0.5 63.5,5.64872538 63.5,12 L63.5,35 C63.5,41.3512746 58.3512746,46.5 52,46.5 L14.8834031,46.5 Z M3.5,54.2176342 L13.1429941,43.971953 C13.4264575,43.6707731 13.8216991,43.5 14.2352941,43.5 L52,43.5 C56.6944204,43.5 60.5,39.6944204 60.5,35 L60.5,12 C60.5,7.30557963 56.6944204,3.5 52,3.5 L12,3.5 C7.30557963,3.5 3.5,7.30557963 3.5,12 L3.5,54.2176342 Z" id="Combined-Shape"></path>
                <path d="M30.078872,69.0421302 C29.1417045,70.0123388 27.5,69.3489209 27.5,68 L27.5,49 C27.5,48.9085554 27.5079412,48.8196376 27.5230814,48.733737 C27.5077147,48.4901712 27.5,48.2455073 27.5,48 L27.5,34 C27.5,27.6487254 32.6487254,22.5 39,22.5 L66,22.5 C72.3512746,22.5 77.5,27.6487254 77.5,34 L77.5,48 C77.5,54.3512746 72.3512746,59.5 66,59.5 L39.2960379,59.5 L30.078872,69.0421302 Z M30.5,64.2880774 L37.5859009,56.9523567 C37.880483,56.6473887 38.2903744,56.4813412 38.7141541,56.4953 C38.8092067,56.4984309 38.9044961,56.5 39,56.5 L66,56.5 C70.6944204,56.5 74.5,52.6944204 74.5,48 L74.5,34 C74.5,29.3055796 70.6944204,25.5 66,25.5 L39,25.5 C34.3055796,25.5 30.5,29.3055796 30.5,34 L30.5,48 C30.5,48.2924498 30.5147132,48.5828386 30.5439139,48.8705028 C30.5635254,49.0637004 30.5466634,49.2484292 30.5,49.4197785 L30.5,64.2880774 Z" id="Combined-Shape" transform="translate(52.500000, 46.001508) scale(-1, 1) translate(-52.500000, -46.001508) "></path>
            </g>
        </g>
    </g>
</svg>